<?xml version="1.0" standalone="no"?>
<!DOCTYPE svg PUBLIC "-//W3C//DTD SVG 20010904//EN"
 "http://www.w3.org/TR/2001/REC-SVG-20010904/DTD/svg10.dtd">
<svg version="1.0" xmlns="http://www.w3.org/2000/svg"
 width="300.000000pt" height="300.000000pt" viewBox="0 0 300.000000 300.000000"
 preserveAspectRatio="xMidYMid meet">

<g transform="translate(0.000000,300.000000) scale(0.100000,-0.100000)"
fill="#000000" stroke="none">
<path d="M1626 2759 c7 -85 13 -99 49 -99 11 0 55 -8 97 -19 l78 -18 45 70
c38 60 43 72 30 80 -22 12 -191 53 -253 62 l-54 7 8 -83z"/>
<path d="M1363 2823 c-26 -5 -28 -13 -41 -136 -6 -49 -12 -90 -14 -92 -2 -2
-67 -27 -145 -54 l-141 -50 -71 94 -71 95 -74 -45 c-109 -66 -106 -58 -57
-182 40 -102 41 -106 24 -127 -10 -11 -56 -64 -103 -116 -46 -52 -85 -96 -86
-98 -1 -2 -46 17 -100 43 -54 25 -103 44 -110 41 -18 -7 -87 -137 -78 -146 10
-8 157 -132 162 -136 2 -1 -13 -72 -33 -157 l-37 -155 -47 -6 c-25 -3 -74 -8
-108 -12 l-63 -6 0 -104 c0 -57 1 -104 3 -104 1 -1 51 -7 110 -14 59 -8 110
-15 112 -17 12 -13 95 -303 88 -308 -4 -4 -43 -36 -85 -70 -43 -34 -78 -66
-78 -72 0 -11 75 -136 101 -168 l20 -25 102 51 102 50 115 -98 c63 -54 116
-102 118 -107 1 -4 -15 -56 -37 -115 l-39 -108 41 -26 c47 -29 163 -83 181
-83 6 0 20 15 31 33 10 17 38 62 61 98 l42 66 146 -21 c80 -12 150 -26 155
-31 5 -6 16 -55 26 -110 10 -55 20 -106 23 -114 4 -11 23 -12 96 -7 140 10
136 7 136 81 0 34 3 89 6 121 l6 59 141 59 141 60 45 -54 c25 -30 62 -73 83
-95 l36 -40 54 37 c29 21 69 50 88 67 l35 29 -53 107 -53 106 91 125 c51 68
97 124 104 124 7 0 59 -16 116 -35 57 -19 105 -33 107 -31 14 14 73 180 66
185 -5 3 -51 32 -101 65 l-92 58 5 47 c4 25 12 95 19 154 7 60 18 112 24 116
7 4 60 18 118 31 l106 23 -7 56 c-3 31 -9 71 -12 89 l-5 32 -117 0 -117 0 -57
129 c-32 72 -60 137 -63 146 -5 12 18 42 81 105 l88 88 -33 46 c-19 25 -37 46
-42 46 -5 0 -53 -23 -108 -50 l-100 -50 -119 105 -119 104 39 103 c21 57 39
108 39 113 0 8 -159 95 -174 95 -2 0 -31 -42 -65 -93 l-61 -94 -153 29 c-83
15 -153 28 -153 28 -1 0 -4 24 -8 53 -4 28 -12 80 -17 115 l-11 62 -77 -1
c-42 -1 -86 -4 -98 -6z m107 -328 c0 -9 -9 -15 -22 -15 -38 0 -69 -12 -65 -24
2 -6 21 -11 43 -11 54 0 55 -29 2 -33 -30 -3 -38 -7 -38 -23 0 -16 7 -19 45
-19 32 0 45 -4 45 -14 0 -17 -30 -26 -86 -26 l-42 0 -4 83 c-3 45 -3 85 -1 90
2 4 31 7 64 7 46 0 59 -3 59 -15z m110 -36 c20 -41 26 -47 31 -32 4 10 8 33 8
51 1 26 5 33 19 30 11 -2 17 -12 16 -31 -3 -144 -3 -147 -24 -147 -14 0 -28
17 -49 58 l-30 57 -1 -37 c0 -46 -8 -68 -26 -68 -11 0 -14 17 -14 69 0 38 3
76 6 85 12 32 40 17 64 -35z m162 26 c3 -3 -2 -42 -11 -87 -16 -78 -34 -107
-47 -74 -5 13 8 97 22 149 5 16 25 23 36 12z m-471 -15 c38 -21 23 -40 -28
-37 -46 2 -48 1 -51 -26 -7 -59 54 -103 78 -57 9 17 8 20 -10 20 -24 0 -27 25
-4 34 33 13 51 6 57 -21 3 -16 9 -36 13 -46 5 -15 3 -18 -12 -16 -10 2 -30 -4
-44 -14 -33 -23 -54 -22 -85 6 -20 16 -28 35 -32 69 -5 40 -2 50 20 72 27 27
65 33 98 16z m647 -45 c1 -1 0 -9 -4 -18 -5 -15 -9 -15 -41 -2 -44 19 -53 19
-53 1 0 -7 15 -19 33 -27 41 -16 38 -14 31 -32 -5 -14 -9 -14 -39 -1 -43 18
-42 18 -48 -6 -4 -16 2 -22 34 -31 27 -9 39 -18 39 -31 0 -10 -3 -18 -7 -18
-20 0 -108 39 -111 49 -2 6 8 45 23 86 l27 74 57 -21 c31 -11 57 -22 59 -23z
m-805 -80 c20 -42 37 -77 37 -79 0 -2 -7 -7 -16 -10 -10 -4 -37 6 -65 24 -27
16 -49 27 -49 25 0 -3 9 -24 21 -47 15 -30 18 -43 9 -52 -14 -14 -29 5 -70 86
-25 48 -27 58 -15 68 12 10 25 6 65 -19 28 -17 52 -31 54 -31 3 0 -7 21 -21
46 -21 38 -23 48 -12 55 8 5 16 9 19 9 3 0 22 -34 43 -75z m949 -9 c14 -21 8
-56 -12 -68 -11 -7 -20 -18 -20 -25 0 -22 -23 -63 -36 -63 -21 0 -25 17 -12
45 11 24 10 29 -7 41 -26 19 -30 18 -43 -11 -6 -14 -16 -25 -22 -25 -25 0 -18
31 20 98 l41 71 42 -26 c23 -14 45 -31 49 -37z m-1065 -160 c-9 -26 -29 -11
-72 49 -39 54 -45 68 -35 80 11 13 20 5 61 -52 27 -37 48 -72 46 -77z m1196
64 c46 -36 44 -83 -6 -137 -28 -32 -80 -31 -112 2 -35 34 -34 84 4 124 34 37
76 41 114 11z m-1398 -40 c3 -5 -6 -25 -20 -45 -36 -47 -22 -66 19 -26 29 28
46 32 46 10 0 -4 -11 -21 -25 -37 -21 -25 -23 -31 -11 -41 12 -10 21 -5 50 26
29 32 36 35 41 21 5 -11 -6 -32 -31 -63 -21 -25 -41 -45 -44 -45 -3 0 -32 27
-65 60 l-58 59 39 45 c42 47 49 52 59 36z m1526 -109 c30 -30 36 -55 20 -80
-8 -12 -12 -12 -25 -2 -9 7 -13 17 -10 22 9 15 -6 49 -23 49 -12 0 -14 -6 -9
-27 23 -91 16 -113 -35 -113 -46 0 -85 70 -60 109 13 20 31 4 31 -28 0 -27 16
-51 33 -51 9 0 7 21 -9 83 -5 20 -1 33 11 47 25 27 41 25 76 -9z m-798 -538
l-3 -498 -52 0 -53 0 -3 397 -2 397 56 101 c31 55 57 100 57 100 1 0 1 -224 0
-497z m-793 471 c64 -43 65 -92 4 -173 -2 -3 -125 70 -142 84 -2 2 4 17 13 35
35 69 76 86 125 54z m1055 -434 c125 -223 231 -409 236 -415 5 -5 9 -13 9 -17
0 -4 -85 -8 -190 -8 l-190 0 0 -50 0 -50 -50 0 -50 0 0 477 c0 262 2 474 4
472 2 -2 106 -186 231 -409z m661 259 c20 -55 17 -85 -11 -108 -64 -50 -122
-33 -148 44 -16 45 -16 46 6 54 12 5 45 18 72 29 28 12 54 20 59 18 5 -1 15
-18 22 -37z m-1161 -478 c-52 -105 -95 -194 -95 -198 0 -5 44 -8 97 -8 l98 0
3 -57 3 -58 -221 0 c-176 0 -221 3 -218 13 2 7 98 177 213 377 l210 364 3
-122 3 -121 -96 -190z m-650 403 c60 -28 69 -103 18 -144 -35 -27 -75 -25
-112 6 -48 40 -41 110 14 142 27 15 41 15 80 -4z m1859 -101 c2 -10 6 -38 8
-63 2 -36 0 -45 -14 -48 -14 -3 -18 4 -18 30 0 37 -15 67 -27 55 -4 -4 -6 -26
-4 -47 4 -56 -25 -56 -34 1 -5 29 -11 39 -23 37 -13 -2 -16 -13 -13 -51 2 -37
-1 -47 -13 -47 -10 0 -17 13 -21 38 -4 20 -9 49 -11 63 -5 25 -2 27 53 37 91
15 111 14 117 -5z m-1832 -111 c4 -4 3 -13 -1 -20 -6 -11 -27 -12 -90 -7 -72
7 -81 10 -81 28 0 19 4 20 82 13 46 -4 86 -10 90 -14z m1848 -72 c0 -18 -7
-20 -70 -20 l-70 0 0 -40 c0 -29 -4 -40 -15 -40 -12 0 -15 13 -15 60 l0 60 85
0 c78 0 85 -2 85 -20z m-1854 -14 c-3 -14 -2 -28 4 -31 19 -12 11 -65 -15 -90
-35 -36 -105 -35 -134 1 -29 37 -27 85 4 114 21 20 25 21 30 7 4 -8 -1 -27
-10 -41 -24 -36 -6 -66 39 -66 39 0 59 19 54 51 -4 29 -24 35 -31 9 -9 -35
-27 -22 -27 19 0 39 1 40 38 44 20 2 41 4 46 5 4 1 5 -9 2 -22z m42 -225 l20
-59 -70 -26 c-38 -14 -75 -26 -82 -26 -7 0 -20 24 -29 53 -21 66 -21 69 0 65
9 -2 22 -19 28 -38 6 -19 16 -33 21 -30 9 5 9 14 3 60 -6 38 23 32 35 -7 6
-23 15 -33 29 -33 15 0 18 5 13 23 -18 62 -19 77 -3 77 10 0 22 -21 35 -59z
m1708 23 c38 -14 70 -27 71 -28 2 -2 -4 -24 -13 -50 -21 -60 -51 -77 -90 -51
-24 15 -26 22 -21 61 4 40 2 45 -19 50 -23 6 -31 23 -17 37 10 10 15 9 89 -19z
m-1650 -155 c14 -28 24 -52 22 -53 -16 -12 -141 -76 -147 -76 -5 0 -11 6 -14
14 -4 10 12 25 51 47 31 17 58 33 60 34 2 2 -4 17 -12 34 -20 38 -20 51 -1 51
8 0 26 -23 41 -51z m1585 -5 c38 -20 69 -41 69 -46 0 -17 -50 -108 -60 -108
-20 0 -20 23 -1 56 25 42 25 40 6 48 -11 4 -21 -5 -32 -29 -9 -19 -20 -35 -24
-35 -17 0 -19 21 -3 51 13 26 14 33 2 40 -20 13 -23 12 -44 -31 -15 -31 -22
-37 -34 -30 -13 8 -11 17 14 65 16 30 31 55 33 55 3 0 36 -16 74 -36z m-1527
-105 c13 -6 32 -26 42 -44 15 -29 16 -37 4 -65 -14 -34 -62 -70 -93 -70 -10 0
-32 13 -48 29 -46 47 -37 104 24 141 37 23 39 23 71 9z m1505 -100 c1 -3 -15
-24 -35 -48 -42 -48 -81 -54 -99 -13 -5 12 -14 22 -20 22 -21 1 -55 38 -49 54
8 20 9 20 39 0 20 -13 28 -14 40 -4 21 18 19 35 -7 52 -20 13 -21 18 -9 31 12
15 20 11 76 -36 35 -28 64 -55 64 -58z m-1341 -62 c33 -30 29 -78 -9 -122 -38
-42 -74 -46 -113 -10 -26 24 -36 77 -17 89 12 8 34 -20 27 -33 -9 -13 21 -41
44 -41 23 0 50 36 50 66 0 28 -24 47 -49 39 -27 -8 -38 15 -16 32 22 16 51 9
83 -20z m1123 11 c33 -27 81 -99 75 -113 -9 -24 -20 -18 -59 35 -39 52 -56 60
-77 35 -13 -16 -10 -23 33 -78 26 -34 31 -67 9 -67 -11 0 -78 91 -86 117 -5
14 1 30 20 52 27 33 60 40 85 19z m-773 -165 c-2 -70 -6 -88 -18 -88 -11 0
-16 14 -18 58 -3 49 -6 57 -22 57 -28 0 -25 19 5 30 14 5 25 14 25 20 0 5 7
10 15 10 13 0 15 -14 13 -87z m142 67 c28 -28 28 -112 -1 -141 -24 -24 -67
-22 -83 3 -14 23 0 35 25 20 20 -13 39 -9 39 9 0 5 -10 9 -22 9 -29 0 -58 28
-58 57 0 28 33 63 60 63 11 0 29 -9 40 -20z m134 4 c9 -8 16 -20 16 -25 0 -13
-34 -11 -47 2 -8 8 -14 6 -22 -8 -9 -18 -7 -20 12 -16 52 10 85 -72 42 -103
-60 -44 -118 23 -94 109 15 54 61 74 93 41z m124 0 c33 -23 29 -63 -10 -96
l-33 -27 33 -1 c26 0 32 -4 32 -20 0 -19 -5 -21 -57 -18 -35 2 -58 8 -61 16
-2 7 14 30 37 51 42 39 53 71 26 71 -9 0 -18 -7 -21 -15 -9 -22 -34 -18 -34 4
0 20 34 51 55 51 6 0 21 -7 33 -16z"/>
<path d="M1976 2333 c-7 -18 17 -43 41 -43 19 0 16 31 -4 46 -24 18 -30 17
-37 -3z"/>
<path d="M2107 2202 c-37 -41 -9 -100 38 -82 29 11 52 57 39 78 -16 24 -57 26
-77 4z"/>
<path d="M650 1981 c-14 -27 -15 -25 31 -56 33 -21 43 -24 50 -13 15 24 9 57
-13 72 -30 21 -55 20 -68 -3z"/>
<path d="M1650 1428 l0 -138 70 0 c39 0 70 3 70 8 0 4 -32 66 -70 137 l-70
130 0 -137z"/>
<path d="M2358 1823 c-41 -16 -47 -33 -22 -57 19 -20 34 -20 62 0 14 10 22 25
22 45 0 33 -9 35 -62 12z"/>
<path d="M562 1734 c-28 -19 -28 -49 0 -68 43 -30 88 -15 88 30 0 40 -53 63
-88 38z"/>
<path d="M2387 1208 c-6 -20 6 -37 25 -38 10 0 20 38 13 50 -11 18 -32 11 -38
-12z"/>
<path d="M764 968 c-33 -16 -46 -51 -28 -77 19 -26 34 -27 68 0 29 23 33 50
10 73 -18 18 -21 18 -50 4z"/>
<path d="M2222 900 c-14 -22 -9 -40 11 -40 16 0 39 38 32 50 -10 16 -29 11
-43 -10z"/>
<path d="M1412 718 c5 -34 38 -37 38 -4 0 20 -5 26 -21 26 -15 0 -20 -5 -17
-22z"/>
<path d="M1551 677 c-14 -17 -4 -47 15 -47 22 0 29 29 12 46 -13 13 -16 13
-27 1z"/>
<path d="M1160 2799 c-77 -20 -210 -67 -210 -75 0 -2 21 -35 46 -73 l45 -69
104 35 c116 39 115 38 115 149 0 62 4 61 -100 33z"/>
<path d="M2221 2524 l-32 -76 77 -72 c42 -39 80 -72 85 -74 4 -2 39 13 79 33
l71 36 -30 37 c-46 57 -194 192 -211 192 -4 0 -22 -34 -39 -76z"/>
<path d="M524 2407 c-63 -65 -112 -122 -109 -128 4 -5 37 -25 75 -44 l68 -34
76 84 76 83 -31 74 c-17 40 -33 75 -36 78 -2 2 -56 -48 -119 -113z"/>
<path d="M2590 2075 l-53 -54 30 -68 c17 -37 36 -83 43 -100 l12 -33 84 0 c46
0 84 1 84 3 0 2 -13 41 -29 88 -40 119 -87 219 -103 219 -8 0 -38 -25 -68 -55z"/>
<path d="M234 1953 c-17 -40 -74 -255 -74 -279 0 -15 45 -18 121 -8 l45 6 27
107 28 106 -38 33 c-21 19 -50 43 -65 53 l-27 20 -17 -38z"/>
<path d="M2770 1480 c-19 -4 -51 -11 -71 -14 l-36 -6 -6 -68 c-3 -37 -9 -88
-13 -113 l-6 -45 68 -41 c47 -28 71 -37 76 -30 12 22 37 161 44 245 8 90 10
87 -56 72z"/>
<path d="M184 1241 c9 -65 74 -271 86 -271 6 0 38 21 73 46 l64 46 -18 51
c-10 29 -25 77 -34 108 l-16 56 -52 7 c-29 3 -65 6 -81 6 -28 0 -29 0 -22 -49z"/>
<path d="M2468 853 c-9 -16 -40 -56 -67 -91 l-51 -62 41 -75 c22 -41 42 -75
44 -75 15 0 211 257 203 265 -4 4 -148 65 -152 65 -1 0 -9 -12 -18 -27z"/>
<path d="M555 675 c-33 -19 -61 -38 -63 -43 -5 -17 231 -235 241 -221 2 2 17
38 34 79 l31 75 -36 30 c-21 16 -58 49 -83 72 -25 24 -50 42 -55 42 -5 -1 -36
-16 -69 -34z"/>
<path d="M1908 417 l-98 -40 0 -83 c0 -46 3 -84 6 -84 33 0 282 95 302 115 5
5 -98 135 -106 134 -4 -1 -51 -20 -104 -42z"/>
<path d="M1181 366 c-4 -6 -24 -39 -44 -73 l-36 -62 52 -16 c57 -17 264 -51
270 -44 2 2 0 41 -6 86 -10 82 -10 83 -41 88 -17 2 -66 11 -109 18 -55 10 -80
11 -86 3z"/>
</g>
</svg>
